:FULLY-SPECIFIED
:FORCE-ALL-JOINTS-BE-3DOF
:DEGREES
306
root -0.0186063 15.3761 -36.0729 10.1773 55.3954 3.54953
lfemur -20.0667 19.2846 -13.3833
ltibia 63.983 -0 0
lfoot -26.8326 28.4723 0.00949299
ltoes 3.0241 -0 0
rfemur -36.7967 -11.0753 9.8216
rtibia 48.6037 -0 0
rfoot -4.81371 -7.91653 2.49719
rtoes -10.6366 0 0
lowerback 13.8017 1.53249 -1.12347
upperback -2.78211 2.182 2.484
thorax -10.7459 1.18467 2.86206
lowerneck -5.7342 3.67299 0.433329
upperneck 6.17939 5.30493 -4.91374
head 3.48069 2.45743 -1.2767
lclavicle 2.79541e-15 -7.95139e-15 0
lhumerus -28.0581 -29.6983 89.3049
lradius 105.56 -0 0
lwrist 38.6503 0 0
lhand -20.212 47.9891 0.107415
lfingers 7.12502 -0 0
lthumb 6.13493 77.8726 0.102938
rclavicle 2.79541e-15 -7.95139e-15 0
rhumerus -7.98834 35.2568 -77.1027
rradius 80.6504 -0 0
rwrist -24.5258 0 0
rhand 21.6904 -24.5267 1.52189
rfingers 7.12502 -0 0
rthumb 45.2364 -40.6074 3.75319
307
root 0.112552 15.3605 -36.0234 10.6815 57.7853 4.65259
lfemur -18.617 18.0487 -13.3704
ltibia 62.8478 -0 0
lfoot -26.9473 28.4208 0.00970044
ltoes 2.03249 -0 0
rfemur -37.288 -10.2087 9.15418
rtibia 47.6065 -0 0
rfoot -3.15303 -6.9648 2.55272
rtoes -8.83773 0 0
lowerback 13.8712 1.50385 -1.68088
upperback -2.69147 2.03694 2.42565
thorax -10.6898 1.14642 3.14764
lowerneck -5.77321 3.09739 0.0439897
upperneck 6.27674 4.54169 -4.53865
head 3.49854 2.08142 -1.13559
lclavicle 2.79541e-15 -7.95139e-15 0
lhumerus -29.3447 -30.1923 91.1698
lradius 104.966 -0 0
lwrist 39.4991 0 0
lhand -20.3486 47.4992 0.109765
lfingers 7.12502 -0 0
lthumb 6.00307 77.3862 0.10519
rclavicle 2.79541e-15 -7.95139e-15 0
rhumerus -4.62954 34.1459 -75.8621
rradius 78.7323 -0 0
rwrist -22.7296 0 0
rhand 19.767 -25.0278 1.55578
rfingers 7.12502 -0 0
rthumb 43.4406 -41.9396 3.83719
308
root 0.243711 15.3449 -35.9739 11.3193 60.1863 5.88636
lfemur -17.1671 16.8041 -13.3906
ltibia 61.7044 -0 0
lfoot -27.0629 28.369 0.00980517
ltoes 1.03372 -0 0
rfemur -37.7919 -9.34161 8.47611
rtibia 46.6021 -0 0
rfoot -1.47963 -6.00495 2.58077
rtoes -7.02588 0 0
lowerback 13.9414 1.47569 -2.24234
upperback -2.60003 1.89092 2.36666
thorax -10.6335 1.10761 3.43523
lowerneck -5.80853 2.51738 -0.347565
upperneck 6.36963 3.77233 -4.16253
head 3.51558 1.70265 -0.993607
lclavicle 2.79541e-15 -7.95139e-15 0
lhumerus -30.6651 -30.6528 93.0699
lradius 104.367 -0 0
lwrist 40.3541 0 0
lhand -20.4861 47.0057 0.110951
lfingers 7.12502 -0 0
lthumb 5.87025 76.8964 0.106327
rclavicle 2.79541e-15 -7.95139e-15 0
rhumerus -1.32077 32.9691 -74.7095
rradius 76.8005 -0 0
rwrist -20.9204 0 0
rhand 17.8295 -25.5334 1.5729
rfingers 7.12502 -0 0
rthumb 41.6303 -43.2835 3.87963
309
root 0.374869 15.3292 -35.9245 12.1221 62.5849 7.27999
lfemur -15.7225 15.5573 -13.4435
ltibia 60.5583 -0 0
lfoot -27.1788 28.317 0.00980517
ltoes 0.0325763 -0 0
rfemur -38.3062 -8.47845 7.79032
rtibia 45.5954 -0 0
rfoot 0.198026 -5.04238 2.58077
rtoes -5.20972 0 0
lowerback 14.0121 1.44816 -2.80517
upperback -2.50823 1.74465 2.30729
thorax -10.5772 1.06842 3.72346
lowerneck -5.83993 1.93577 -0.73954
upperneck 6.4576 3.00054 -3.78708
head 3.53171 1.32294 -0.851424
lclavicle 2.79541e-15 -7.95139e-15 0
lhumerus -32.0119 -31.076 94.9953
lradius 103.767 -0 0
lwrist 41.2111 0 0
lhand -20.6241 46.511 0.110951
lfingers 7.12502 -0 0
lthumb 5.73711 76.4054 0.106327
rclavicle 2.79541e-15 -7.95139e-15 0
rhumerus 1.92344 31.7365 -73.6514
rradius 74.8639 -0 0
rwrist -19.1069 0 0
rhand 15.8872 -26.0406 1.5729
rfingers 7.12502 -0 0
rthumb 39.8152 -44.6314 3.87963
310
root 0.506028 15.3136 -35.875 13.131 64.9669 8.87223
lfemur -14.2884 14.3152 -13.5282
ltibia 59.4149 -0 0
lfoot -27.2944 28.2652 0.00970044
ltoes -0.966187 0 0
rfemur -38.8285 -7.62349 7.09986
rtibia 44.591 -0 0
rfoot 1.87143 -4.08253 2.55272
rtoes -3.39787 0 0
lowerback 14.0829 1.42138 -3.36669
upperback -2.4165 1.59883 2.24784
thorax -10.5213 1.02905 4.01097
lowerneck -5.86729 1.35534 -1.13015
upperneck 6.54025 2.23004 -3.41393
head 3.54686 0.944099 -0.709706
lclavicle 2.79541e-15 -7.95139e-15 0
lhumerus -33.3771 -31.459 96.9354
lradius 103.168 -0 0
lwrist 42.0661 0 0
lhand -20.7616 46.0175 0.109765
lfingers 7.12502 -0 0
lthumb 5.60429 75.9156 0.10519
rclavicle 2.79541e-15 -7.95139e-15 0
rhumerus 5.0906 30.4589 -72.692
rradius 72.9321 -0 0
rwrist -17.2978 0 0
rhand 13.9497 -26.5462 1.55578
rfingers 7.12502 -0 0
rthumb 38.0049 -45.9753 3.83719
